Coordinates
version=1
nRows=5
nColumns=40
inDegrees=yes

Units are S.I. units (second, meters, Newtons, ...)
Angles are in degrees.

endheader
time	pelvis_tilt	pelvis_list	pelvis_rotation	pelvis_tx	pelvis_ty	pelvis_tz	hip_flexion_r	hip_adduction_r	hip_rotation_r	knee_angle_r	knee_angle_r_beta	ankle_angle_r	subtalar_angle_r	mtp_angle_r	hip_flexion_l	hip_adduction_l	hip_rotation_l	knee_angle_l	knee_angle_l_beta	ankle_angle_l	subtalar_angle_l	mtp_angle_l	lumbar_extension	lumbar_bending	lumbar_rotation	arm_flex_r	arm_add_r	arm_rot_r	elbow_flex_r	pro_sup_r	wrist_flex_r	wrist_dev_r	arm_flex_l	arm_add_l	arm_rot_l	elbow_flex_l	pro_sup_l	wrist_flex_l	wrist_dev_l
     28.74114286	     -5.41417698	     -6.35006958	      6.09672434	      1.10362907	      0.90810300	      0.45006432	     -5.19541495	      5.64440170	    -20.61938462	      7.01487338	      7.01487338	     19.07710975	      5.56318475	     -2.99461464	     35.88672504	     -6.14753443	     -3.95454524	     17.78084272	     17.78084272	      3.49864386	     -9.16259212	      8.84784280	     -7.15671868	      6.49674976	      5.84524760	     51.50994963	    -16.53314885	     -8.32257541	     83.25397363	     44.73059156	      0.00000000	      0.00000000	    -21.65601956	     -5.39549868	      2.16165953	     22.96013073	     45.25947329	      0.00000000	      0.00000000
     28.75228571	     -5.48459488	     -6.13412398	      5.77536647	      1.10529293	      0.90656661	      0.44780650	     -5.44574368	      5.07535561	    -20.17459739	      7.95089092	      7.95089092	     19.74299015	      5.19472090	     -2.86389994	     35.64398994	     -5.87070254	     -3.92983840	     18.70860844	     18.70860844	      2.31964128	    -10.58786724	      8.50016792	     -6.93896872	      6.27519963	      5.70723315	     52.17662250	    -15.95136736	     -8.18088944	     84.31303618	     44.70256927	      0.00000000	      0.00000000	    -22.12496282	     -5.17595982	      2.35966995	     22.79474575	     45.21921876	      0.00000000	      0.00000000
     28.76342857	     -5.47870307	     -5.81512406	      5.37533043	      1.10720251	      0.90550657	      0.44549440	     -5.97724818	      4.43868903	    -19.72738760	      8.49762643	      8.49762643	     20.06275477	      5.08186513	     -2.84594801	     35.30570732	     -5.62964995	     -4.24064928	     19.70592453	     19.70592453	      1.47520383	    -11.43745996	      8.42404119	     -6.77699154	      5.91626169	      5.79009229	     52.57760465	    -15.69199475	     -8.12262129	     84.81066661	     44.68874416	      0.00000000	      0.00000000	    -22.38013011	     -5.04031446	      2.43204775	     22.68143851	     45.20283391	      0.00000000	      0.00000000
     28.77457143	     -5.50469406	     -5.62814646	      5.11460286	      1.10883273	      0.90435512	      0.44291570	     -5.86911702	      3.77609308	    -19.05696201	     10.23360607	     10.23360607	     21.08218842	      4.07152437	     -1.54881936	     34.89888757	     -5.23558371	     -3.54921051	     20.22696653	     20.22696653	     -0.97598967	    -14.00792977	      5.18666802	     -6.66931370	      5.77361139	      5.89294824	     52.43347033	    -15.47101543	     -8.27642207	     87.20258588	     44.66774710	      0.00000000	      0.00000000	    -22.27895672	     -4.98686090	      3.33707922	     22.47199511	     45.07377444	      0.00000000	      0.00000000
     28.78571429	     -5.45328301	     -5.36569909	      4.80806961	      1.11051171	      0.90374381	      0.44033398	     -5.95784028	      3.04080152	    -18.63101778	     11.68577168	     11.68577168	     21.33552100	      3.51943406	     -1.85276290	     34.71407951	     -5.02615040	     -3.63132794	     21.45741040	     21.45741040	     -1.31635743	    -14.70435198	      4.89780762	     -6.59614555	      5.52104572	      5.65656529	     52.57885343	    -14.93098920	     -8.14736095	     87.91887140	     44.65104757	      0.00000000	      0.00000000	    -22.20709424	     -4.80839756	      3.56371122	     22.29335341	     45.04311607	      0.00000000	      0.00000000
